<?xml version="1.0" standalone="no"?><!DOCTYPE svg PUBLIC "-//W3C//DTD SVG 1.1//EN" "http://www.w3.org/Graphics/SVG/1.1/DTD/svg11.dtd"><svg t="1625925096748" class="icon" viewBox="0 0 1024 1024" version="1.1" xmlns="http://www.w3.org/2000/svg" p-id="3179" xmlns:xlink="http://www.w3.org/1999/xlink" width="200" height="200"><defs><style type="text/css"></style></defs><path d="M832.3 510.9c0 75.5-26.2 144.8-70 199.5l133.5 133.5c77.6-89.1 124.6-205.6 124.6-333 0-268.4-208.5-488.2-472.4-506.2v188.8C707.9 211 832.3 346.4 832.3 510.9z" fill="#ffffff" p-id="3180"></path><path d="M513 830.2c-176.3 0-319.3-143-319.3-319.3 0-164.5 124.4-299.9 284.3-317.4V4.7C214.2 22.7 5.7 242.5 5.7 510.9c0 280.2 227.2 507.4 507.4 507.4 127.6 0 244.2-47.1 333.3-124.8L712.9 759.9c-54.7 44-124.2 70.3-199.9 70.3z" fill="#ffffff" p-id="3181"></path></svg>